HIERARCHY
ROOT pelvis
{
  OFFSET 0 100 0
  CHANNELS 6 Xposition Yposition Zposition Zrotation Xrotation Yrotation
  JOINT pelvis_right_femur
  {
    OFFSET -10.78128 -3.44521 -0.5502486
    CHANNELS 3 Zrotation Xrotation Yrotation
    JOINT right_femur_tibia
    {
      OFFSET -0.8047443 -44.0398 -0.1307829
      CHANNELS 3 Zrotation Xrotation Yrotation
      JOINT right_tibia_foot
      {
        OFFSET 3.006224 -47.83518 -5
        CHANNELS 3 Zrotation Xrotation Yrotation
        End Site
        {
          OFFSET 0 -5 15
        }
      }
    }
  }
  JOINT pelvis_left_femur
  {
    OFFSET 10.78128 -3.44521 -0.5502486
    CHANNELS 3 Zrotation Xrotation Yrotation
    JOINT left_femur_tibia
    {
      OFFSET 0.8047443 -44.0398 -0.1307829
      CHANNELS 3 Zrotation Xrotation Yrotation
      JOINT left_tibia_foot
      {
        OFFSET -4.370144 -48.10324 -4.275266
        CHANNELS 3 Zrotation Xrotation Yrotation
        End Site
        {
          OFFSET 0 -5 15
        }
      }
    }
  }
  JOINT pelvis_spine1
  {
    OFFSET 0 6.468898 -3.129235
    CHANNELS 3 Zrotation Xrotation Yrotation
    JOINT spine1
    {
      OFFSET 0 23.15396 4.99043
      CHANNELS 3 Zrotation Xrotation Yrotation
      JOINT spine2
      {
        OFFSET 0 20.79997 -5.064912
        CHANNELS 3 Zrotation Xrotation Yrotation
        JOINT neck
        {
          OFFSET 0 14.38658 9.616178
          CHANNELS 3 Zrotation Xrotation Yrotation
          End Site
          {
            OFFSET 0 20 0
          }
        }
      }
      JOINT right_manubrium
      {
        OFFSET -5.722621 16.35077 3.967754
        CHANNELS 3 Zrotation Xrotation Yrotation
        JOINT right_clavicle
        {
          OFFSET -13.16364 1.694482 -4.693211
          CHANNELS 3 Zrotation Xrotation Yrotation
          JOINT right_humerus
          {
            OFFSET -28.5034 -0.3100689 -2.792744
            CHANNELS 3 Zrotation Xrotation Yrotation
            JOINT right_radius
            {
              OFFSET -25.15693 0.02248979 -1.271978
              CHANNELS 3 Zrotation Xrotation Yrotation
              End Site
              {
                OFFSET -15 0 0
              }
            }
          }
        }
      }
      JOINT left_manubrium
      {
        OFFSET 5.722621 16.35077 3.967754
        CHANNELS 3 Zrotation Xrotation Yrotation
        JOINT left_clavicle
        {
          OFFSET 13.16364 1.694482 -4.693211
          CHANNELS 3 Zrotation Xrotation Yrotation
          JOINT left_humerus
          {
            OFFSET 29.39168 -1.063119 -2.237045
            CHANNELS 3 Zrotation Xrotation Yrotation
            JOINT left_radius
            {
              OFFSET 24.59957 -0.9528479 0.9047498
              CHANNELS 3 Zrotation Xrotation Yrotation
              End Site
              {
                OFFSET 15 -0 -0
              }
            }
          }
        }
      }
    }
  }
}
MOTION
Frames: 13
Frame Time: 0.0416666666667
-23.23468 92.44473 3136.042 -1.416281 -13.39836 -10.50152 4.637102 3.942881 5.787893 -0 21.88834 -0 -2.409333 -13.51044 -8.351657 -2.414068 -4.480299 -7.354614 -0 50.57325 -0 -7.44266 -9.870801 21.02822 -0.1852894 -4.478781 9.848698 -0.9361852 14.66149 -5.441923 -1.669962 18.79964 6.737163 9.269068 -9.892666 -1.09771 6.643586 -26.00283 13.24733 82.27991 24.31458 -14.37898 -0 0 27.86326 -21.09304 10.12191 8.376921 5.225042 -29.30195 -10.922 -96.52115 4.434858 36.52712 0 0 -2.749601 8.314571 10.13489 5.911707
-24.32998 92.53222 3141.841 -1.648212 -12.94495 -11.39356 4.606499 7.089419 5.695796 -0 21.91599 -0 -1.78604 -15.53614 -7.704012 -1.687259 -8.978938 -6.788388 -0 44.7904 -0 -8.151355 -10.21887 21.05438 -0.2201531 -4.375325 9.922501 -0.7646498 14.30817 -5.298356 -1.677398 18.85539 6.728449 8.933616 -10.34738 -0.8022523 6.146002 -26.421 13.16157 82.01988 24.4246 -13.41081 -0 0 28.08135 -20.89582 9.893093 8.758005 5.005926 -28.82685 -10.55065 -96.74177 4.621821 37.31888 0 0 -2.234764 8.498799 10.07025 5.80016
-25.33021 92.33891 3147.799 -1.824963 -12.12394 -12.20678 4.456779 9.696598 5.576023 -0 22.31954 -0 -0.9411828 -17.02338 -6.965658 -1.055868 -12.60403 -6.244052 -0 38.67782 -0 -8.595109 -10.24115 20.81782 -0.26814 -4.277295 9.913354 -0.706746 14.0424 -5.131475 -1.645412 18.95776 6.744392 8.704296 -10.6559 -0.534368 5.811712 -26.6195 13.06399 81.80484 24.58032 -12.60123 -0 0 28.16269 -20.90251 9.804689 9.114125 4.906989 -28.40615 -10.24873 -96.88772 4.793243 37.7033 0 0 -1.740249 8.653655 10.16277 5.625878
-26.24265 91.98862 3153.982 -1.850227 -11.23971 -12.90907 4.074342 11.74908 5.372183 -0 23.40216 -0 -0.1040211 -17.66585 -6.214853 -0.7965678 -15.09617 -5.939323 -0 33.41559 -0 -8.627802 -10.09465 20.46426 -0.3176127 -4.194033 9.83723 -0.7464098 13.89094 -4.974939 -1.587068 19.0882 6.774778 8.592623 -10.80292 -0.3296732 5.655729 -26.60701 12.97379 81.6726 24.74621 -12.05775 -0 0 28.10136 -21.06974 9.831678 9.384251 4.91618 -28.09635 -10.05502 -96.94958 4.933173 37.69682 0 0 -1.329166 8.765441 10.36853 5.421473
-27.07838 91.63137 3160.407 -1.689857 -10.50925 -13.46751 3.45584 13.1573 5.054864 -0 25.4356 -0 0.5390067 -17.1895 -5.540331 -1.039971 -16.37196 -5.97385 -0 29.63649 -0 -8.210962 -9.959044 20.07741 -0.3586964 -4.131387 9.710555 -0.8601035 13.8698 -4.862074 -1.514882 19.22523 6.806904 8.5969 -10.7928 -0.2142662 5.675003 -26.40749 12.9071 81.65435 24.89276 -11.86057 -0 0 27.90534 -21.3404 9.94807 9.516383 5.016437 -27.93753 -9.993224 -96.9155 5.026285 37.3295 0 0 -1.074252 8.833167 10.64118 5.19902
-27.84915 91.41477 3167.04 -1.378356 -10.02893 -13.84242 2.695316 13.75406 4.634528 -0 28.56554 -0 0.8879885 -15.46714 -5.021932 -1.7298 -16.45365 -6.298405 -0 27.38603 -0 -7.366881 -9.943044 19.69836 -0.38487 -4.09202 9.548119 -1.023565 13.98193 -4.817495 -1.438545 19.34857 6.829625 8.705565 -10.6448 -0.20068 5.851479 -26.05447 12.87405 81.76697 24.99931 -12.04646 -0 0 27.59706 -21.65989 10.13241 9.47946 5.189937 -27.94729 -10.06923 -96.7765 5.059838 36.64145 0 0 -1.039316 8.864551 10.94043 4.955143
-28.56506 91.45214 3173.794 -1.000352 -9.80161 -13.99266 1.935623 13.33355 4.14998 -0 32.70486 -0 0.9321954 -12.62891 -4.71891 -2.674807 -15.40087 -6.770083 -0 26.27281 -0 -6.165437 -10.07687 19.34475 -0.3935911 -4.075246 9.362573 -1.214921 14.21568 -4.852783 -1.36413 19.44239 6.835548 8.898963 -10.39035 -0.2858433 6.153516 -25.58748 12.87773 82.00965 25.05415 -12.60162 -0 0 27.21118 -21.98405 10.36667 9.268137 5.419722 -28.11821 -10.27057 -96.53052 5.026695 35.68252 0 0 -1.266809 8.873154 11.23532 4.676048
-29.23271 91.79156 3180.545 -0.6585116 -9.772148 -13.89201 1.309959 11.71936 3.654515 -0 37.44464 -0 0.7359343 -9.122939 -4.665889 -3.640413 -13.29727 -7.240572 -0 25.68501 -0 -4.749812 -10.35507 19.01086 -0.3862925 -4.077247 9.164312 -1.416185 14.54547 -4.965466 -1.294311 19.4976 6.822058 9.151639 -10.06898 -0.4520722 6.539587 -25.04815 12.91454 82.36392 25.05472 -13.46476 -0 0 26.78864 -22.28246 10.63377 8.901953 5.690409 -28.42014 -10.56889 -96.18474 4.927885 34.51121 0 0 -1.769712 8.875592 11.50521 4.343735
-29.85574 92.39455 3187.152 -0.4354984 -9.852981 -13.54498 0.8918469 8.845257 3.202318 -0 42.04062 -0 0.4082663 -5.66217 -4.872964 -4.434501 -10.2773 -7.627336 -0 25.01349 -0 -3.352188 -10.78719 18.66178 -0.3678944 -4.091896 8.960842 -1.614489 14.93556 -5.140589 -1.228959 19.51331 6.791495 9.436021 -9.72174 -0.6709692 6.96534 -24.47468 12.97565 82.79671 25.00855 -14.53943 -0 0 26.36771 -22.53974 10.91722 8.420425 5.98907 -28.80717 -10.92527 -95.75542 4.773445 33.18979 0 0 -2.527725 8.888584 11.74067 3.942467
-30.43978 93.13602 3193.499 -0.3614451 -9.943318 -12.99082 0.6731105 4.818208 2.827269 -0 45.53661 -0 0.05868899 -3.020099 -5.320594 -4.958477 -6.553217 -7.933815 -0 23.84498 -0 -2.252146 -11.42296 18.24064 -0.3458247 -4.111941 8.75592 -1.802775 15.34597 -5.354415 -1.165845 19.49656 6.750438 9.726543 -9.38443 -0.9090126 7.391529 -23.89663 13.04891 83.26633 24.93348 -15.71233 -0 0 25.97567 -22.75491 11.20319 7.875408 6.306065 -29.2268 -11.29705 -95.26534 4.580912 31.77693 0 0 -3.489799 8.926557 11.9437 3.463336
-31.00042 93.83212 3199.53 -0.4019388 -9.946611 -12.29189 0.5792293 -0.07171081 2.519517 -0 47.02343 -0 -0.2410904 -1.737737 -5.948472 -5.212367 -2.410661 -8.21258 -0 22.07226 -0 -1.680487 -12.33433 17.6915 -0.3286497 -4.130198 8.549489 -1.979116 15.73848 -5.579313 -1.101503 19.46018 6.708217 10.00259 -9.083549 -1.133099 7.789255 -23.33273 13.1211 83.72934 24.85557 -16.87165 -0 0 25.62498 -22.93789 11.48268 7.322637 6.634953 -29.62857 -11.64403 -94.74016 4.372005 30.32247 0 0 -4.58304 9.000381 12.12573 2.906104
-31.56827 94.28949 3205.274 -0.47465 -9.786491 -11.51387 0.5097881 -5.405732 2.221172 -0 45.93254 -0 -0.4646267 -1.902362 -6.656383 -5.265273 1.834914 -8.503691 -0 19.88317 -0 -1.72731 -13.56472 16.98416 -0.3245287 -4.140664 8.339225 -2.144605 16.08071 -5.788436 -1.03242 19.41934 6.675077 10.24956 -8.83561 -1.314945 8.141128 -22.79312 13.17995 84.14611 24.80444 -17.92023 -0 0 25.31531 -23.10367 11.75157 6.81449 6.970926 -29.97033 -11.93279 -94.20592 4.168866 28.86842 0 0 -5.723866 9.116575 12.3028 2.280276
-32.18601 94.35717 3210.834 -0.4870482 -9.420492 -10.70994 0.3823693 -10.72448 1.854073 -0 42.22445 -0 -0.6088855 -3.133526 -7.329773 -5.213996 5.90265 -8.795917 -0 17.65536 -0 -2.316963 -15.07907 16.12845 -0.339605 -4.139734 8.123669 -2.30077 16.34853 -5.95921 -0.9565168 19.38782 6.660352 10.45876 -8.647774 -1.434594 8.439919 -22.28438 13.21598 84.48374 24.8068 -18.78284 -0 0 25.03979 -23.2662 12.00861 6.394966 7.307938 -30.22227 -12.13965 -93.68918 3.991011 27.45695 0 0 -6.826037 9.275201 12.48926 1.608738
